<svg width="24" height="24" viewBox="0 0 24 24" fill="none" xmlns="http://www.w3.org/2000/svg">
<g clip-path="url(#clip0_5_7)">
<path d="M4 4H20C21.1 4 22 4.9 22 6V18C22 19.1 21.1 20 20 20H4C2.9 20 2 19.1 2 18V6C2 4.9 2.9 4 4 4Z" stroke="black" stroke-width="2" stroke-linecap="round" stroke-linejoin="round"/>
<path d="M22 6L12 13L2 6" stroke="black" stroke-width="2" stroke-linecap="round" stroke-linejoin="round"/>
<path d="M13.9997 -90.9365C48.1774 -90.9365 52.2254 -90.8064 65.7225 -90.1906C78.2023 -89.621 84.9799 -87.5358 89.4907 -85.7834C95.4649 -83.4613 99.7294 -80.6871 104.208 -76.2083C108.687 -71.7294 111.461 -67.4649 113.783 -61.4907C115.536 -56.9799 117.621 -50.2023 118.191 -37.723C118.806 -24.2254 118.936 -20.1774 118.936 14.0003C118.936 48.1779 118.806 52.2259 118.191 65.723C117.621 78.2029 115.536 84.9804 113.783 89.4912C111.461 95.4654 108.687 99.7299 104.208 104.209C99.7294 108.688 95.4649 111.462 89.4907 113.783C84.9799 115.536 78.2023 117.622 65.7225 118.191C52.2274 118.807 48.1794 118.937 13.9997 118.937C-20.1799 118.937 -24.2279 118.807 -37.723 118.191C-50.2029 117.622 -56.9804 115.536 -61.4907 113.783C-67.4654 111.462 -71.7299 108.688 -76.2088 104.209C-80.6876 99.7299 -83.4619 95.4654 -85.7834 89.4912C-87.5363 84.9804 -89.6215 78.2029 -90.1911 65.7235C-90.8069 52.2259 -90.937 48.1779 -90.937 14.0003C-90.937 -20.1774 -90.8069 -24.2254 -90.1911 -37.7225C-89.6215 -50.2023 -87.5363 -56.9799 -85.7834 -61.4907C-83.4619 -67.4649 -80.6876 -71.7294 -76.2088 -76.2083C-71.7299 -80.6871 -67.4654 -83.4613 -61.4907 -85.7834C-56.9804 -87.5358 -50.2029 -89.621 -37.7235 -90.1906C-24.2259 -90.8064 -20.1779 -90.9365 13.9997 -90.9365ZM13.9997 -114C-20.7632 -114 -25.1217 -113.853 -38.7742 -113.23C-52.3989 -112.608 -61.7031 -110.444 -69.8454 -107.28C-78.2625 -104.009 -85.4008 -99.632 -92.5167 -92.5161C-99.6325 -85.4002 -104.009 -78.262 -107.28 -69.8449C-110.445 -61.7026 -112.608 -52.3983 -113.23 -38.7737C-113.853 -25.1217 -114 -20.7627 -114 14.0003C-114 48.7632 -113.853 53.1222 -113.23 66.7742C-112.608 80.3988 -110.445 89.7031 -107.28 97.8454C-104.009 106.262 -99.6325 113.401 -92.5167 120.517C-85.4008 127.633 -78.2625 132.009 -69.8454 135.28C-61.7031 138.445 -52.3989 140.608 -38.7742 141.23C-25.1217 141.853 -20.7632 142 13.9997 142C48.7627 142 53.1217 141.853 66.7737 141.23C80.3983 140.608 89.7026 138.445 97.8449 135.28C106.262 132.009 113.4 127.633 120.516 120.517C127.632 113.401 132.009 106.262 135.28 97.8454C138.444 89.7031 140.608 80.3988 141.23 66.7742C141.853 53.1222 142 48.7632 142 14.0003C142 -20.7627 141.853 -25.1217 141.23 -38.7737C140.608 -52.3983 138.444 -61.7026 135.28 -69.8449C132.009 -78.262 127.632 -85.4002 120.516 -92.5161C113.4 -99.632 106.262 -104.009 97.8449 -107.28C89.7026 -110.444 80.3983 -112.608 66.7737 -113.23C53.1217 -113.853 48.7627 -114 13.9997 -114ZM13.9997 -51.7297C-22.3017 -51.7297 -51.7302 -22.3012 -51.7302 14.0003C-51.7302 50.3017 -22.3017 79.7302 13.9997 79.7302C50.3012 79.7302 79.7297 50.3017 79.7297 14.0003C79.7297 -22.3012 50.3012 -51.7297 13.9997 -51.7297ZM13.9997 56.6672C-9.56426 56.6672 -28.6672 37.5643 -28.6672 14.0003C-28.6672 -9.56375 -9.56426 -28.6667 13.9997 -28.6667C37.5638 -28.6667 56.6667 -9.56375 56.6667 14.0003C56.6667 37.5643 37.5638 56.6672 13.9997 56.6672ZM97.6863 -54.3266C97.6863 -45.8434 90.8098 -38.9663 82.3266 -38.9663C73.8434 -38.9663 66.9663 -45.8434 66.9663 -54.3266C66.9663 -62.8098 73.8434 -69.6863 82.3266 -69.6863C90.8098 -69.6863 97.6863 -62.8098 97.6863 -54.3266Z" fill="#0A0A08"/>
</g>
<defs>
<clipPath id="clip0_5_7">
<rect width="24" height="24" fill="white"/>
</clipPath>
</defs>
</svg>
